HIERARCHY
ROOT Hips
{
	OFFSET -0.001795 -0.223333 0.028219
	CHANNELS 6 Xposition Yposition Zposition Zrotation Yrotation Xrotation 
	JOINT LeftUpLeg
	{
		OFFSET 0.069520 -0.091406 -0.006815
		CHANNELS 3 Zrotation Yrotation Xrotation
		JOINT LeftLeg
		{
			OFFSET 0.034277 -0.375199 -0.004496
			CHANNELS 3 Zrotation Yrotation Xrotation
			JOINT LeftFoot
			{
				OFFSET -0.013596 -0.397961 -0.043693
				CHANNELS 3 Zrotation Yrotation Xrotation
				JOINT LeftToe
				{
					OFFSET 0.026358 -0.055791 0.119288
					CHANNELS 3 Zrotation Yrotation Xrotation
					End Site
					{
						OFFSET 0.000000 0.000000 0.000000
					}
				}
			}
		}
	}
	JOINT RightUpLeg
	{
		OFFSET -0.067670 -0.090522 -0.004320
		CHANNELS 3 Zrotation Yrotation Xrotation
		JOINT RightLeg
		{
			OFFSET -0.038290 -0.382569 -0.008850
			CHANNELS 3 Zrotation Yrotation Xrotation
			JOINT RightFoot
			{
				OFFSET 0.015774 -0.398415 -0.042312
				CHANNELS 3 Zrotation Yrotation Xrotation
				JOINT RightToe
				{
					OFFSET -0.025372 -0.048144 0.123348
					CHANNELS 3 Zrotation Yrotation Xrotation
					End Site
					{
						OFFSET 0.000000 0.000000 0.000000
					}
				}
			}
		}
	}
	JOINT Spine
	{
		OFFSET -0.002533 0.108963 -0.026696
		CHANNELS 3 Zrotation Yrotation Xrotation
		JOINT Spine1
		{
			OFFSET 0.005487 0.135180 0.001092
			CHANNELS 3 Zrotation Yrotation Xrotation
			JOINT Spine2
			{
				OFFSET 0.001457 0.052922 0.025425
				CHANNELS 3 Zrotation Yrotation Xrotation
				JOINT Neck
				{
					OFFSET -0.002778 0.213870 -0.042857
					CHANNELS 3 Zrotation Yrotation Xrotation
					JOINT Head
					{
						OFFSET 0.005152 0.064970 0.051349
						CHANNELS 3 Zrotation Yrotation Xrotation
						End Site
						{
							OFFSET 0.000000 0.000000 0.000000
						}
					}
				}
				JOINT LeftShoulder
				{
					OFFSET 0.078845 0.121749 -0.034090
					CHANNELS 3 Zrotation Yrotation Xrotation
					JOINT LeftArm
					{
						OFFSET 0.090977 0.030469 -0.008868
						CHANNELS 3 Zrotation Yrotation Xrotation
						JOINT LeftForeArm
						{
							OFFSET 0.259612 -0.012772 -0.027456
							CHANNELS 3 Zrotation Yrotation Xrotation
							JOINT LeftHand
							{
								OFFSET 0.249234 0.008986 -0.001171
								CHANNELS 3 Zrotation Yrotation Xrotation
								End Site
								{
									OFFSET 0.000000 0.000000 0.000000
								}
							}
						}
					}
				}
				JOINT RightShoulder
				{
					OFFSET -0.081759 0.118833 -0.038615
					CHANNELS 3 Zrotation Yrotation Xrotation
					JOINT RightArm
					{
						OFFSET -0.096012 0.032551 -0.009143
						CHANNELS 3 Zrotation Yrotation Xrotation
						JOINT RightForeArm
						{
							OFFSET -0.253742 -0.013329 -0.021401
							CHANNELS 3 Zrotation Yrotation Xrotation
							JOINT RightHand
							{
								OFFSET -0.255298 0.007772 -0.005559
								CHANNELS 3 Zrotation Yrotation Xrotation
								End Site
								{
									OFFSET 0.000000 0.000000 0.000000
								}
							}
						}
					}
				}
			}
		}
	}
}
MOTION
Frames: 5
Frame Time: 0.050000
-0.101514 0.912333 0.061633 -2.088127 2.877479 -4.738604 -0.177133 1.149857 13.424356 -0.378558 -2.852001 53.284897 -2.375639 4.810213 22.979373 0.000000 0.000000 0.000000 8.332037 3.807030 -22.895151 2.782958 -0.265310 40.968671 -10.347119 -23.173887 16.248021 0.000000 0.000000 0.000000 0.921057 -0.627883 12.224626 4.352934 -3.697317 15.711286 1.545643 -7.130667 -10.541969 -9.738887 7.589751 2.334206 0.000000 0.000000 0.000000 -26.264346 5.514814 -4.656542 -32.242143 7.084408 -4.918448 -116.122422 -62.645060 95.111695 0.000000 0.000000 0.000000 15.441245 -0.742741 -3.375145 36.504923 -24.194492 -8.982304 51.843143 44.312775 21.596101 0.000000 0.000000 0.000000 
-0.103029 0.911426 0.051874 -1.716802 2.883541 -4.449492 0.066973 0.372179 4.322664 -2.426880 -2.090781 62.415523 1.667864 8.918048 17.677980 0.000000 0.000000 0.000000 8.579014 3.043464 -18.109224 1.656436 0.263134 32.069624 -20.756940 -33.567790 34.165696 0.000000 0.000000 0.000000 0.211471 -0.625124 13.580377 4.510662 -3.697458 14.809875 0.126742 -4.241731 -10.056198 -9.170820 6.915933 1.722639 0.000000 0.000000 0.000000 -25.154040 4.453825 -4.846113 -33.612017 9.280713 -5.443217 -107.963924 -60.335154 82.016131 0.000000 0.000000 0.000000 17.420906 0.275017 -2.598253 37.117032 -19.904100 -7.920301 46.924300 47.982800 21.957995 0.000000 0.000000 0.000000 
-0.104331 0.918746 0.043204 -0.427579 2.695157 -4.341932 -0.824914 -0.480667 -4.935693 -4.240434 -0.702931 66.002752 5.227658 13.219182 12.671898 0.000000 0.000000 0.000000 8.125076 1.733813 -10.660467 -0.344514 0.711933 18.309923 -27.299473 -39.376073 37.457462 0.000000 0.000000 0.000000 -1.066080 -0.481077 13.782074 2.732546 -2.218353 11.725367 0.178768 -1.116280 -6.683205 -7.948018 5.999523 1.753857 0.000000 0.000000 0.000000 -25.064813 5.162134 -5.999913 -31.504447 11.503668 -5.576072 -100.606947 -57.201392 69.958593 0.000000 0.000000 0.000000 16.528808 0.247678 -1.766238 39.460712 -16.174509 -7.724302 51.169506 53.938693 28.377363 0.000000 0.000000 0.000000 
-0.106615 0.933650 0.037454 1.065171 2.930352 -3.078592 -2.559699 -1.764095 -15.156754 -4.309877 -0.579245 63.937118 7.692077 16.840367 10.652379 0.000000 0.000000 0.000000 7.031657 0.367805 -2.826462 -1.259993 0.456078 6.575737 -18.738210 -33.759795 24.691347 0.000000 0.000000 0.000000 -2.835055 -0.239316 12.625709 1.860075 -1.609101 10.775208 -0.701919 2.686399 -5.980700 -6.378367 4.604092 3.451563 0.000000 0.000000 0.000000 -22.615806 5.579758 -6.794644 -28.928717 14.817849 -5.579852 -96.583396 -53.070453 60.311290 0.000000 0.000000 0.000000 16.142379 -1.066149 -1.561498 40.287549 -13.286426 -7.189722 63.817574 58.420136 40.950864 0.000000 0.000000 0.000000 
-0.110175 0.953242 0.033905 1.976337 1.714721 -1.268494 -4.015997 -3.114146 -23.889036 -2.286953 -1.174147 55.088964 6.591441 15.279051 12.246046 0.000000 0.000000 0.000000 6.154997 -0.917020 5.124350 -1.783446 0.148846 -0.854297 -11.874701 -25.087241 22.978932 0.000000 0.000000 0.000000 -4.498817 -0.008301 10.832419 1.002100 -0.911661 8.873469 -1.015597 7.508885 -4.390429 -3.632748 2.172124 4.494221 0.000000 0.000000 0.000000 -20.743813 5.463127 -7.268694 -26.089331 19.270567 -5.732760 -90.732482 -47.558887 48.344575 0.000000 0.000000 0.000000 14.439822 -1.476962 -0.839281 42.095100 -9.401007 -6.512772 80.787991 63.636179 60.986173 0.000000 0.000000 0.000000 
